<?xml version="1.0" encoding="UTF-8" standalone="no"?>
<!-- Created with Inkscape (http://www.inkscape.org/) -->

<svg
   xmlns:dc="http://purl.org/dc/elements/1.1/"
   xmlns:cc="http://creativecommons.org/ns#"
   xmlns:rdf="http://www.w3.org/1999/02/22-rdf-syntax-ns#"
   xmlns:svg="http://www.w3.org/2000/svg"
   xmlns="http://www.w3.org/2000/svg"
   xmlns:sodipodi="http://sodipodi.sourceforge.net/DTD/sodipodi-0.dtd"
   xmlns:inkscape="http://www.inkscape.org/namespaces/inkscape"
   id="svg2"
   version="1.1"
   inkscape:version="0.48.4 r9939"
   width="480.66769"
   height="477.80661"
   sodipodi:docname="lilie.svg">
  <metadata
     id="metadata8">
    <rdf:RDF>
      <cc:Work
         rdf:about="">
        <dc:format>image/svg+xml</dc:format>
        <dc:type
           rdf:resource="http://purl.org/dc/dcmitype/StillImage" />
        <dc:title></dc:title>
      </cc:Work>
    </rdf:RDF>
  </metadata>
  <defs
     id="defs6" />
  <sodipodi:namedview
     pagecolor="#ffffff"
     bordercolor="#666666"
     borderopacity="1"
     objecttolerance="10"
     gridtolerance="10"
     guidetolerance="10"
     inkscape:pageopacity="0"
     inkscape:pageshadow="2"
     inkscape:window-width="1600"
     inkscape:window-height="847"
     id="namedview4"
     showgrid="false"
     inkscape:zoom="0.63815373"
     inkscape:cx="514.90352"
     inkscape:cy="253.48716"
     inkscape:window-x="0"
     inkscape:window-y="28"
     inkscape:window-maximized="1"
     inkscape:current-layer="layer2"
     fit-margin-top="20"
     fit-margin-left="20"
     fit-margin-right="20"
     fit-margin-bottom="20" />
  <g
     inkscape:groupmode="layer"
     id="layer2"
     inkscape:label="Layer2"
     style="opacity:0.98000004;display:inline"
     transform="translate(-25.598361,-19.858038)">
    <path
       style="fill:#ffffff;fill-opacity:1;stroke:#ffffff;stroke-width:1px;stroke-linecap:butt;stroke-linejoin:miter;stroke-opacity:1"
       d="m 262.10313,40.358038 c -6.01128,10.715786 -41.41247,40.470768 -50.46388,52.325563 -14.80733,19.393429 -42.05241,56.266459 -4.42024,124.975769 5.60735,10.23796 23.84777,55.70857 28.2909,95.27918 l 18.83686,-1.10805 c 6.0097,-44.23577 3.71852,-131.35944 5.54026,-197.23305 0,-14.04814 10.52648,-14.09048 10.52648,0 2.33919,65.9564 -1.30837,134.57357 7.20233,197.78708 l 20.22193,0.55402 c -1.4559,-8.22024 5.17564,-67.98963 23.4713,-96.3249 C 349.98087,172.2084 346.07029,120.55029 308.42025,85.986909 292.11753,71.020738 278.96976,59.617811 262.10313,40.358038 z"
       id="path2987"
       inkscape:connector-curvature="0"
       sodipodi:nodetypes="cssccccccssc" />
    <path
       style="fill:#ffffff;fill-opacity:1;stroke:#ffffff;stroke-width:1px;stroke-linecap:butt;stroke-linejoin:miter;stroke-opacity:1"
       d="M 225.07882,314.69057 C 191.47189,111.09808 40.379712,180.79358 46.265742,250.54722 c 2.58281,30.60813 20.60321,72.37018 71.863928,72.76196 -11.06419,-66.85834 67.94408,-60.37363 77.95927,-4.70106 z"
       id="path3757"
       inkscape:connector-curvature="0"
       sodipodi:nodetypes="csccc" />
    <path
       style="fill:#ffffff;fill-opacity:1;stroke:#ffffff;stroke-width:1px;stroke-linecap:butt;stroke-linejoin:miter;stroke-opacity:1"
       d="m 306.78559,314.21043 c 33.60692,-203.59249 184.6991,-133.89699 178.81307,-64.14335 -2.58281,30.60813 -20.60321,72.37018 -71.86392,72.76196 11.06419,-66.85834 -67.94409,-60.37363 -77.95928,-4.70106 z"
       id="path3757-0"
       inkscape:connector-curvature="0"
       sodipodi:nodetypes="csccc" />
    <path
       style="fill:#ffffff;fill-opacity:1;stroke:#ffffff;stroke-width:1.76499998999999996;stroke-miterlimit:4;stroke-opacity:1;stroke-dasharray:none"
       d="m 265.96875,320.3125 c -45.40634,0 -82.1875,3.59381 -82.1875,16.8125 0,13.21873 36.78116,16.59375 82.1875,16.59375 45.40633,0 82.21875,-5.27439 82.21875,-16 0,-14.04973 -36.81242,-17.40625 -82.21875,-17.40625 z m 1.40625,10.0625 c 36.13218,0 65.4375,3.48529 65.4375,7.8125 0,4.32721 -29.30532,5.90625 -65.4375,5.90625 -36.13219,0 -65.40625,-1.57904 -65.40625,-5.90625 0,-4.32721 29.27406,-7.8125 65.40625,-7.8125 z"
       id="path3896"
       inkscape:connector-curvature="0" />
    <path
       style="fill:#ffffff;fill-opacity:1;stroke:#ffffff;stroke-width:1px;stroke-linecap:butt;stroke-linejoin:miter;stroke-opacity:1"
       d="m 199.79512,352.97827 26.24759,3.5258 c -6.88307,43.81193 -21.16221,60.56074 -43.26324,62.57643 -22.78209,2.0778 -36.20536,-11.16643 -37.83007,-34.76182 37.82666,12.71735 46.76787,-13.22529 54.84572,-31.34041 z"
       id="path3870"
       inkscape:connector-curvature="0"
       sodipodi:nodetypes="ccscc" />
    <path
       style="fill:#ffffff;fill-opacity:1;stroke:#ffffff;stroke-width:1px;stroke-linecap:butt;stroke-linejoin:miter;stroke-opacity:1;display:inline"
       d="m 332.79599,353.11989 -26.24759,3.5258 c 6.88307,43.81193 21.16221,60.56074 43.26324,62.57643 22.78209,2.0778 36.20536,-11.16643 37.83007,-34.76182 -37.82666,12.71735 -46.76787,-13.22529 -54.84572,-31.34041 z"
       id="path3870-5"
       inkscape:connector-curvature="0"
       sodipodi:nodetypes="ccscc" />
    <path
       style="fill:#ffffff;fill-opacity:1;stroke:#ffffff;stroke-width:1px;stroke-linecap:butt;stroke-linejoin:miter;stroke-opacity:1"
       d="m 235.83659,358.07109 17.23723,0.39175 c 9.19017,20.08549 8.94097,44.89066 12.53616,67.77364 0,0 0.93937,3.54055 3.32992,3.5258 2.51886,-0.0155 2.93816,-3.5258 2.93816,-3.5258 1.69016,-23.53509 2.2957,-51.40865 5.87633,-67.38188 l 17.62898,0 c 7.02318,23.95389 15.44793,45.10463 26.63935,60.72204 -16.49351,19.69335 -28.38359,40.76772 -54.45396,57.58801 -17.48285,-14.84523 -35.44011,-30.95556 -56.02099,-54.06221 12.0776,-17.69579 21.56898,-37.9778 24.28882,-65.03135 z"
       id="path3890"
       inkscape:connector-curvature="0"
       sodipodi:nodetypes="cccsccccccc" />
  </g>
</svg>
