<?xml version="1.0" encoding="utf-8"?>
<svg viewBox="-1.539 0.004 158.684 119.918" version="1.1" id="svg2" xmlns="http://www.w3.org/2000/svg">
  <defs id="defs4">
    <clipPath id="clip1">
      <path d="M 13 25 L 157.148438 25 L 157.148438 119.921875 L 13 119.921875 Z M 13 25 " id="path7"/>
    </clipPath>
  </defs>
  <g id="surface1145">
    <title>stripes</title>
    <path style="stroke: none; fill-rule: nonzero; fill-opacity: 1; fill: rgb(150, 215, 229);" d="M 24.664062 69.304688 C 21.164062 71.105469 16.664062 73.804688 13.761719 77.105469 C 8.363281 79.402344 4.960938 73.703125 1.363281 70.902344 C 0.164062 68.304688 -1.539062 63.703125 2.761719 62.503906 C 10.164062 60.703125 14.761719 55.003906 21.164062 51.402344 C 31.5625 42.703125 43.863281 35.902344 55.5625 28.605469 L 56.460938 28.804688 C 71.164062 21.605469 84.863281 12.203125 100.164062 5.804688 C 105.5625 5.804688 109.464844 1.503906 114.5625 1.003906 C 115.363281 0.105469 116.761719 0.402344 117.761719 0.00390625 C 116.664062 1.304688 114.261719 1.304688 113.164062 3.304688 C 114.863281 3.804688 116.5625 3.003906 118.261719 2.605469 C 117.363281 2.902344 116.863281 3.703125 117.0625 4.503906 L 121.761719 3.105469 C 119.5625 5.902344 115.863281 5.902344 113.363281 8.402344 C 117.164062 9.003906 120.261719 6.503906 123.761719 5.804688 C 121.863281 7.402344 120.261719 8.203125 118.464844 10.003906 L 119.664062 9.804688 C 100.261719 22.105469 79.363281 32.902344 58.761719 45.304688 L 24.664062 69.304688 " id="path10"/>
    <path style="stroke: none; fill-rule: nonzero; fill-opacity: 1; fill: rgb(150, 215, 229);" d="M 41.5625 77.605469 C 37.363281 79.203125 34.460938 83.402344 30.164062 84.304688 L 26.761719 86.402344 C 26.164062 87.105469 29.164062 83.902344 26.460938 84.804688 C 26.761719 84.605469 27.261719 84.203125 26.761719 83.902344 C 24.761719 83.203125 23.164062 85.003906 21.164062 85.003906 L 22.960938 82.503906 L 21.363281 82.304688 L 21.363281 81.804688 L 19.960938 81.804688 C 19.863281 80.804688 21.460938 80.605469 21.164062 79.503906 C 19.960938 78.902344 18.664062 78.703125 17.164062 78.804688 C 19.273438 76.449219 24.554688 75.476562 25.121094 72.085938 L 61.761719 50.003906 C 77.164062 43.203125 89.164062 33.503906 104.261719 27.003906 C 111.0625 21.605469 119.261719 19.402344 125.664062 14.003906 C 126.664062 12.105469 128.5625 9.605469 130.964844 9.105469 C 136.664062 11.402344 140.863281 16.804688 141.464844 22.804688 C 134.5625 26.503906 127.0625 28.503906 120.0625 31.902344 C 101.863281 41.804688 84.0625 52.804688 65.261719 63.003906 C 64.464844 63.464844 63.761719 64.035156 63.148438 64.683594 L 41.5625 77.605469 " id="path12"/>
    <path style="stroke: none; fill-rule: nonzero; fill: rgb(30, 65, 131); fill-opacity: 1;" d="M 70.004 87.574 C 76.289 83.629 82.961 80.465 89.348 76.719 C 107.645 66.621 126.645 58.02 144.848 47.422 C 148.746 43.82 155.547 44.02 157.145 38.219 C 153.645 34.52 154.547 20.121 146.445 27.219 C 126.746 43.52 103.945 52.82 82.547 64.219 L 36.199 93.844 C 30.141 98.852 22.754 103.133 18.246 109.02 C 20.145 108.922 21.945 105.32 23.547 107.82 L 15.445 114.621 C 15.746 114.621 16.246 114.422 16.348 114.82 L 14.547 116.719 C 16.246 117.719 13.348 119.121 13.645 119.922 L 28.945 109.922 C 30.246 108.621 32.047 109.219 33.547 109.719 C 32.848 110.32 32.348 111.219 31.445 111.621 C 37.746 107.52 43.945 103.121 50.047 99.52 C 50.746 100.922 47.746 102.621 47.246 103.422 L 50.547 100.422 L 50.293 99.969" id="path16"/>
  </g>
  <g clip-path="url(#clip1)" clip-rule="nonzero" id="g14" style="fill:#1e4183;fill-opacity:1">
    <title>lilly</title>
    <path style=" stroke:none;fill-rule:nonzero;fill:rgb(0%,0%,0%);fill-opacity:1;" d="M 63.461 70.203 C 65.762 65.902 70.363 61.504 75.762 61.402 C 78.563 61.504 81.164 63.004 82.563 65.504 C 85.164 71.902 81.262 78.305 76.762 82.504 L 74.664 83.004 C 73.563 79.805 73.461 75.605 69.961 74.105 C 68.063 74.805 66.164 76.504 65.164 78.305 C 64.563 79.855 64.316 81.105 64.316 81.105 L 60.262 81.105 L 60.813 78.23 L 63.461 70.203" id="path18"/>
    <path style="stroke:none;fill-rule:nonzero;fill:rgb(0%, 0%, 0%);fill-opacity:1;stroke-width:0.8;stroke-miterlimit:4;stroke-dasharray:none;stroke-opacity:1" d="M 59 80.855 L 56.063 80.902 C 55.961 71.203 55.461 62.203 54.664 53.004 C 53.762 61.504 53.563 71.703 53.063 80.605 L 50.262 80.605 C 50.762 69.805 41.461 60.805 46.563 50.402 C 48.664 47.004 51.563 44.105 54.664 41.402 C 60.961 45.805 65.363 52.902 63.762 61.105 C 63.363 67.305 59.375 71.855 59.125 78.293 L 59 80.855" id="path20"/>
    <path style=" stroke:none;fill-rule:nonzero;fill:rgb(0%,0%,0%);fill-opacity:1;" d="M 45.563 69.703 C 46.961 73.305 47.664 77.105 48.664 80.902 L 44.461 80.902 C 44.762 78.004 42.563 75.805 40.262 74.402 C 38.262 73.805 36.863 76.004 36.363 77.402 C 35.461 79.105 34.664 80.902 34.664 83.004 C 29.762 82.703 27.762 76.504 26.063 72.504 C 25.664 68.605 26.262 64.105 30.262 62.105 C 36.664 60.105 42.563 64.703 45.563 69.703" id="path22"/>
    <path style=" stroke:none;fill-rule:nonzero;fill:rgb(0%,0%,0%);fill-opacity:1;" d="M 49.063 87.805 C 48.063 91.402 46.863 95.305 43.063 97.402 C 39.664 97.605 38.262 94.504 36.961 92.004 L 36.961 91.305 C 38.461 92.105 40.762 92.105 42.363 91.105 C 45.063 89.504 45.313 87.98 46.363 86.402 L 49.063 87.805" id="path24"/>
    <path style=" stroke:none;fill-rule:nonzero;fill:rgb(0%,0%,0%);fill-opacity:1;" d="M 68.164 92.004 C 69.563 92.105 71.063 92.105 72.063 91.105 C 72.363 93.605 71.063 95.805 68.863 96.902 C 67.461 97.805 65.563 97.305 64.461 96.402 C 62.063 94.004 61.164 90.902 60.262 87.805 L 63.461 86.703 C 64.164 89.004 65.863 90.902 68.164 92.004" id="path26"/>
    <path style=" stroke:none;fill-rule:nonzero;fill:rgb(0%,0%,0%);fill-opacity:1;" d="M 61.664 96.203 C 60.461 99.605 57.863 102.504 54.863 104.605 C 51.363 102.805 49.563 100.004 47.961 96.703 C 49.863 94.305 50.664 91.402 50.961 88.305 L 54.664 91.805 C 56.063 90.305 57.863 89.902 58.363 87.805 C 58.363 90.605 58.961 94.004 61.664 96.203" id="path28"/>
    <path style=" stroke:none;fill-rule:nonzero;fill:rgb(0%,0%,0%);fill-opacity:1;" d="M 65.75 82.008 L 65.75 81.996 L 42.875 81.996 C 41.973 81.996 41.238 82.785 41.238 83.762 C 41.238 84.738 41.973 85.531 42.875 85.531 C 42.93 85.531 42.984 85.52 43.039 85.512 L 65.461 85.512 C 65.516 85.52 65.57 85.531 65.625 85.531 C 66.527 85.531 67.262 84.738 67.262 83.762 C 67.262 82.832 66.594 82.078 65.75 82.008" id="path30"/>
  </g>
</svg>