<?xml version="1.0" encoding="UTF-8" standalone="no"?>
<!-- Created with Inkscape (http://www.inkscape.org/) -->

<svg
   xmlns:dc="http://purl.org/dc/elements/1.1/"
   xmlns:cc="http://creativecommons.org/ns#"
   xmlns:rdf="http://www.w3.org/1999/02/22-rdf-syntax-ns#"
   xmlns:svg="http://www.w3.org/2000/svg"
   xmlns="http://www.w3.org/2000/svg"
   xmlns:sodipodi="http://sodipodi.sourceforge.net/DTD/sodipodi-0.dtd"
   xmlns:inkscape="http://www.inkscape.org/namespaces/inkscape"
   id="svg2"
   version="1.1"
   inkscape:version="0.48.3.1 r9886"
   width="196.4375"
   height="149.9"
   xml:space="preserve"
   sodipodi:docname="logo.svg"><metadata
     id="metadata8"><rdf:RDF><cc:Work
         rdf:about=""><dc:format>image/svg+xml</dc:format><dc:type
           rdf:resource="http://purl.org/dc/dcmitype/StillImage" /><dc:title></dc:title></cc:Work></rdf:RDF></metadata><defs
     id="defs6" /><sodipodi:namedview
     pagecolor="#3fb1cb"
     bordercolor="#666666"
     borderopacity="1"
     objecttolerance="10"
     gridtolerance="10"
     guidetolerance="10"
     inkscape:pageopacity="1"
     inkscape:pageshadow="2"
     inkscape:window-width="1600"
     inkscape:window-height="850"
     id="namedview4"
     showgrid="false"
     inkscape:zoom="3.148766"
     inkscape:cx="24.267363"
     inkscape:cy="58.408812"
     inkscape:window-x="0"
     inkscape:window-y="25"
     inkscape:window-maximized="1"
     inkscape:current-layer="g12" /><g
     id="g10"
     inkscape:groupmode="layer"
     inkscape:label="ink_ext_XXXXXX"
     transform="matrix(1.25,0,0,-1.25,0,149.9)"
     style="display:inline"><g
       id="g12"
       transform="scale(0.1,0.1)"><path
         d="m 246.625,506.164 c -35,-18 -80,-45 -109,-78 -54,-23 -88,34 -124,62 -12,26 -29,72 14,84 74,18 120,75 184,111 104,87 227,155 344,228 l 9,-2 c 147,72 284,165.996 436.995,229.996 54,0 93,43 144,48 8,9 22,6 32,10 -11,-13 -35,-13 -46,-33 17,-5 34,3 51,7 -9,-3 -14,-11 -12,-19 l 47,14 c -22,-28 -59,-28 -84,-53 38,-6 69,19 104,26 -19,-16 -35,-24 -53,-42 l 12,2 C 1002.62,978.164 793.625,870.164 587.625,746.164 l -341,-240"
         style="fill:#ffffff;fill-opacity:1;fill-rule:nonzero;stroke:none"
         id="path14"
         inkscape:connector-curvature="0" /><path
         d="m 415.625,423.164 c -42,-16 -71,-58 -114,-67 l -34,-21 c -6,-7 24,25 -3,16 3,2 8,6 3,9 -20,7 -36,-11 -56,-11 l 18,25 -16,2 0,5 -14,0 c -1,10 15,12 12,23 -12,6 -25,8 -40,7 21.125,23.563 73.937,33.262 79.59,67.18 l 366.41,220.82 c 154,68 274,165 424.995,230 68,54 150,75.996 214,129.996 10,19 29,44 53,49 57,-23 99,-77 105,-136.996 -69,-37 -144,-57 -214,-91 -182,-99 -359.995,-209 -547.995,-311 -7.98,-4.629 -14.992,-10.305 -21.156,-16.797 L 415.625,423.164"
         style="fill:#ffffff;fill-opacity:1;fill-rule:nonzero;stroke:none"
         id="path16"
         inkscape:connector-curvature="0" /><path
         d="m 700.035,323.469 c 62.852,39.426 129.586,71.082 193.426,108.531 182.999,101 372.999,187 554.999,293 39,36 107,34 123,92 -35,37 -26,181 -107,110 -197,-163 -425,-256 -638.999,-370 L 361.984,260.758 C 301.398,210.68 227.539,167.883 182.461,109 c 19,1 37,37 53,12 l -81,-68 c 3,0 8,2 9,-2 l -18,-19 c 17,-10 -12,-24 -9,-32 l 153,100 c 13,13 31,7 46,2 -7,-6 -12,-15 -21,-19 63,41 125,85 186,121 7,-14 -23,-31 -28,-39 l 33,30 -2.543,4.496"
         style="fill:#1d4182;fill-opacity:1;fill-rule:nonzero;stroke:none"
         id="path18"
         inkscape:connector-curvature="0" /><path
         d="m 634.625,497.164 c 23,43 69,87 123,88 28,-1 54,-16 68,-41 26,-64 -13,-128 -58,-170 l -21,-5 c -11,32 -12,74 -47,89 -19,-7 -38,-24 -48,-42 -6,-15.5 -8.457,-28 -8.457,-28 l -40.543,0 5.5,28.75 26.5,80.25"
         style="fill:#000000;fill-opacity:1;fill-rule:nonzero;stroke:none"
         id="path20"
         inkscape:connector-curvature="0" /><path
         d="m 590,390.664 -29.375,-0.5 c -1,97 -6,187 -14,279 -9,-85 -11,-187 -16,-276 l -28,0 c 5,108 -88,198 -37,302 21,34 50,63 81,90 63,-44 107,-115 91,-197 -4,-62 -43.875,-107.5 -46.375,-171.875 L 590,390.664"
         style="fill:#000000;fill-opacity:1;fill-rule:nonzero;stroke:none"
         id="path22"
         inkscape:connector-curvature="0" /><path
         d="m 455.625,502.164 c 14,-36 21,-74 31,-112 l -42,0 c 3,29 -19,51 -42,65 -20,6 -34,-16 -39,-30 -9,-17 -17,-35 -17,-56 -49,3 -69,65 -86,105 -4,39 2,84 42,104 64,20 123,-26 153,-76"
         style="fill:#000000;fill-opacity:1;fill-rule:nonzero;stroke:none"
         id="path24"
         inkscape:connector-curvature="0" /><path
         d="m 490.625,321.164 c -10,-36 -22,-75 -60,-96 -34,-2 -48,29 -61,54 l 0,7 c 15,-8 38,-8 54,2 27,16 29.5,31.25 40,47 l 27,-14"
         style="fill:#000000;fill-opacity:1;fill-rule:nonzero;stroke:none"
         id="path26"
         inkscape:connector-curvature="0" /><path
         d="m 681.625,279.164 c 14,-1 29,-1 39,9 3,-25 -10,-47 -32,-58 -14,-9 -33,-4 -44,5 -24,24 -33,55 -42,86 l 32,11 c 7,-23 24,-42 47,-53"
         style="fill:#000000;fill-opacity:1;fill-rule:nonzero;stroke:none"
         id="path28"
         inkscape:connector-curvature="0" /><path
         d="m 616.625,237.164 c -12,-34 -38,-63 -68,-84 -35,18 -53,46 -69,79 19,24 27,53 30,84 l 37,-35 c 14,15 32,19 37,40 0,-28 6,-62 33,-84"
         style="fill:#000000;fill-opacity:1;fill-rule:nonzero;stroke:none"
         id="path30"
         inkscape:connector-curvature="0" /><path
         d="m 657.5,379.121 0,0.137 -228.75,0 c -9.031,0 -16.352,-7.914 -16.352,-17.68 0,-9.762 7.321,-17.676 16.352,-17.676 0.559,0 1.086,0.118 1.633,0.176 l 224.234,0 c 0.547,-0.058 1.074,-0.176 1.633,-0.176 9.031,0 16.352,7.914 16.352,17.676 0,9.301 -6.664,16.84 -15.102,17.543"
         style="fill:#000000;fill-opacity:1;fill-rule:nonzero;stroke:none"
         id="path32"
         inkscape:connector-curvature="0" /></g></g></svg>